<?xml version="1.0" ?><!DOCTYPE svg  PUBLIC '-//W3C//DTD SVG 1.1//EN'  'http://www.w3.org/Graphics/SVG/1.1/DTD/svg11.dtd'><svg enable-background="new 0 0 48 48" height="48px" version="1.1" viewBox="0 0 48 48" width="48px" xml:space="preserve" xmlns="http://www.w3.org/2000/svg" xmlns:xlink="http://www.w3.org/1999/xlink"><g id="Layer_4"><g><polygon fill="#241F20" points="45.474,8.842 45.474,41.684 2.526,41.684 2.526,8.842 0,8.842 0,44.211 48,44.211 48,8.842   "/><path d="M15.801,22.727v-1.726h5.716c0.128-0.06,0.263-0.112,0.39-0.175l0.002,0.003l2.407-1.1l-0.001,0.002    c1.299-0.642,2.679-1.141,4.116-1.493V12.19V9.631V8.21c0-1.047,0.849-1.895,1.895-1.895c0.973,0,1.765,0.732,1.873,1.674h2.526    c-0.116-2.337-2.03-4.2-4.399-4.2c-2.365,0-4.28,1.863-4.397,4.2h-0.021v1.642v1.79v2H15.801V12.75v-0.56V9.631V8.21    c0-1.047,0.848-1.895,1.895-1.895c0.971,0,1.762,0.732,1.873,1.674h2.526c-0.117-2.337-2.032-4.2-4.399-4.2    c-2.442,0-4.421,1.979-4.421,4.421v1.421v3.119v10.174c0.668-0.009,1.339-0.039,2.019-0.116    C15.465,22.789,15.63,22.751,15.801,22.727z M15.801,15.947h10.105v2.526H15.801V15.947z" fill="#241F20"/><path d="M42.947,27.473v-1.629v-0.74v-2.372v-0.076h-0.149c-2.861-1.559-6.123-2.473-9.61-2.473    c-3.188,0-6.195,0.752-8.873,2.072l0.001-0.002l-2.407,1.101l-0.002-0.004c-2.023,1.005-4.235,1.712-6.614,1.982    c-3.626,0.412-7.12-0.189-10.24-1.543v2.055v0.189v13.23h37.895V27.473z M25.843,24H25.75c0.031-0.012,0.062-0.023,0.093-0.035V24    z" fill="#241F20"/></g></g></svg>